<svg xmlns="http://www.w3.org/2000/svg" viewBox="0 0 96 96" width="96" height="96"><defs><clipPath id="a"><path fill="none" d="M0 0h96v96H0z"/></clipPath></defs><g fill="#231f20" clip-path="url(#a)"><path d="M31.4 61.7c.3-1 .5-1.9.7-2.9a.1.1 0 0 1 .1.1l-.3 1.8a6.4 6.4 0 0 0 1.1 4.5c.5.7.8.7 1.6.4a9 9 0 0 0 3.8-2.9l3.2-4.9h.1c-.1.4-.3.8-.4 1.1l.4-.5c.8-1.6 1.7-3.2 2.4-4.9s2.1-4.3 3.1-6.5a20 20 0 0 0 1-2.1h-.1l-.7.9h-.1c-.6.1-.8.7-1.1 1l-.6.5-.6.2-1.7-.3a2 2 0 0 1-1.6-1.2l-.4-.6-.3.4-3.2 3.7a11.4 11.4 0 0 0-1.1 1.1 1.9 1.9 0 0 1-1.9.4h-.2c-.7.2-1.1-.3-1.5-.6a.8.8 0 0 1-.3-.8 12.9 12.9 0 0 1 .4-1.9 32.3 32.3 0 0 1 4.2-7.2l.2-.4h-.5A5.6 5.6 0 0 1 35 39a1.3 1.3 0 0 1-.7-1.4 10.9 10.9 0 0 1 2.4-5.1c0-.1.1-.1.2-.2a2.5 2.5 0 0 1 1.6.6 1.4 1.4 0 0 1 .3 1.6c-.4 1-.6 2.1-.9 3.1v.5l1.5-.5a2.5 2.5 0 0 1 2.4.3c.4.2.4.7.3 1.1a3.5 3.5 0 0 1-.5 1.3c-.9 1.5-2 3-2.9 4.6a25.3 25.3 0 0 0-1.3 2.2 1.1 1.1 0 0 0-.2.6l.4-.3a21.8 21.8 0 0 0 2.1-2.2 22 22 0 0 0 2-2.3 3.5 3.5 0 0 0 .7-1.2l1.5-3.4c.2-.7.6-.8 1.2-.7s.7.4.6.9-.1.3-.1.5l.3-.5c.1-.2.3-.2.4-.4l.3.5v.2c.6-.1.7 0 .5.5s-.7 2.7-1.1 4.1a.7.7 0 0 0-.1.5h.2a23.9 23.9 0 0 0 2.3-2.2c.5-.7.7-1.6 1.2-2.3s.7-1.3 1.1-1.8.4-.4.8-.3 1.7 1.1 1.4 2.2a34.1 34.1 0 0 1-1 4.6 61.9 61.9 0 0 1-4.8 11.2 46 46 0 0 1-4.6 6.9 15 15 0 0 1-4.3 3.6 6.9 6.9 0 0 1-3.1.9l-2.4-.2a3.5 3.5 0 0 1-1.9-1.9 6 6 0 0 1-.7-4 11.1 11.1 0 0 1 2.3-5.2l1.1-1.1a3.2 3.2 0 0 1 .9-.3l.4-.2a3.1 3.1 0 0 1 2.8-.6 2.3 2.3 0 0 1 1.8 2.2 6.6 6.6 0 0 1-.8 3.4 5.6 5.6 0 0 1-2.4 2.2c-.4.3-.8.1-1.2-.1s-.1-.2-.2-.3h.3l.6-.2a5.8 5.8 0 0 0 2.4-5.6.9.9 0 0 0-.3-.7c-.1-.3-.3-.4-.7-.4a5.5 5.5 0 0 0-2.5 1.3l-1.5 1.6a2.1 2.1 0 0 0-.6 1 10.1 10.1 0 0 0-1 3.5 1.5 1.5 0 0 0-.1.7m-.3-2.8l2-3.5a8.2 8.2 0 0 0-2 3.5"/><path d="M19.1 31a12.7 12.7 0 0 0-.1 2c-.1.6-.1 1.3-.2 1.9h.2c0-.6.2-1.2.2-1.9s.2-3.7.2-5.5a24.4 24.4 0 0 0 .1-2.7 1.4 1.4 0 0 0-.2-.6c0-.2-.1-.4 0-.5a.4.4 0 0 1 .5-.1 2.6 2.6 0 0 1 2.3 1.9 11.3 11.3 0 0 1 .3 1.8 1.1 1.1 0 0 1 .1.6 1.1 1.1 0 0 1 .4-.5 17.2 17.2 0 0 1 4-4.9 4.2 4.2 0 0 1 1.6-.9 1.5 1.5 0 0 1 1.6.1 4.1 4.1 0 0 1 1.9 3.1 11 11 0 0 1-1.7 6.9l-.6 1 .3.2a5.3 5.3 0 0 1 4.1 5.2 9 9 0 0 1-1.7 5.3 19.7 19.7 0 0 1-9.3 7.3 16.1 16.1 0 0 1-6.5 1 6.3 6.3 0 0 1-4.3-1.9 5.2 5.2 0 0 1-1-4.8c0-.1.1-.2.2-.4a9.2 9.2 0 0 0-.1 1.6h.1c.1-.3.1-.7.2-1a10 10 0 0 1 3.6-5.6 5 5 0 0 1 2.3-.9c.3-.1.4-.2.4-.5.3-2.1.5-4.3.8-6.5.1-.2.1-.5.2-.7h.1m-1.7 10.6h-.2a7.4 7.4 0 0 0-3.1 5.1 3.2 3.2 0 0 0 1.7 3.3 5 5 0 0 0 3.6.6 13 13 0 0 0 5-2.1 16.4 16.4 0 0 0 5.9-6.6 9.5 9.5 0 0 0 .7-6.2 3 3 0 0 0-1-2c-.4-.4-.7-.3-1 .1l-1.2 1.6a3 3 0 0 1-3.3.8c-.6-.4-.8-.7-.5-1.3a7.5 7.5 0 0 1 .7-1.2 39.8 39.8 0 0 0 4.6-8.3c.3-.8.5-1.6.8-2.4s-.1-.4-.2-.4a2.2 2.2 0 0 0-1.4.2l-.9.7a18.5 18.5 0 0 0-4 5.6 16.3 16.3 0 0 0-1.5 4.4c-.2 1.6-.4 3.3-.7 5s.1.4.4.5l1.7.7 3.6 2a1.5 1.5 0 0 1 .5.6c.1.1 0 .3 0 .4h-.7a1.8 1.8 0 0 1-1.8-.9l-.3-.3a11.7 11.7 0 0 0-3.1-1.2c-.4 0-.5.1-.6.4a18.9 18.9 0 0 1-.5 2.3 1.4 1.4 0 0 1-1.3.9l-1.1.2c-.8.1-1-.1-1-.9a7.7 7.7 0 0 0 .2-1.5M60.7 37l.3-1 .3-.6.5-.2.5.2a6 6 0 0 1 1.3.9 1.3 1.3 0 0 1 .2 1.2c-.2.9-.5 1.8-.7 2.8a6.1 6.1 0 0 0-.3 1.3h.1l.5-.6a6.8 6.8 0 0 0 1.5-2.6c.3-1.2.8-2.4 1.2-3.6a.8.8 0 0 0 .2-.5.9.9 0 0 1 1.1-.5l.9.3c.7.4.9.6.7 1.4s-.4 2.6-.7 3.8v.5h.1l.3-.4 2.9-4 1-.9a1 1 0 0 1 .9 0c.9.6 1 1 .8 2.2a19 19 0 0 1-1.5 4.6c-1.2 2.5-2.3 5.1-3.4 7.6a2.9 2.9 0 0 0-.2.9l.3-.2 3-2.4a.8.8 0 0 1 .9-.1h.8a.6.6 0 0 1-.1.4L72.5 49l-2.4 2a3.9 3.9 0 0 1-3.6.6c-.5-.2-.7-.6-.6-1.3a16.8 16.8 0 0 1 .7-2.4 44.8 44.8 0 0 1 3.5-6.5l2.7-4.6c.2-.4.3-1 .5-1.5a.1.1 0 0 0-.1-.1l-.6.5a17.4 17.4 0 0 0-2.7 3.8c-1 1.7-1.9 3.4-2.8 5.1s-.2.2-.4.4h-.1c-.4.6-1 .6-1.5-.2s0 .3-.1.4h-.4a4.6 4.6 0 0 1-.7-.7.8.8 0 0 1 0-.7 7.1 7.1 0 0 1 .1-1.4h-.2c-.1.1-.2.1-.3.3L62 45.1c-.1.1-.3.4-.5.4a2.9 2.9 0 0 1-1.3 0 3.7 3.7 0 0 1-1.4-.7c-.2-.1-.4-.4-.6-.6l-.3.4a13.4 13.4 0 0 1-1.1 1.4c-.3.4-.7.4-1.2.4a8.8 8.8 0 0 1-2.3-.7c-.8-.4-1.2-.9-1-1.8a24.5 24.5 0 0 1 .8-2.9 16.4 16.4 0 0 1 2.6-4.2l.5-.4c1.3-1.2 2.5-1 3.8 0l.7.6m-3.9 5.4h.3l2.1-2.6a3.8 3.8 0 0 0 .5-2.1c0-.2-.3-.4-.4-.7l-.5.5a13.8 13.8 0 0 0-1.9 4.3 1.5 1.5 0 0 0-.1.7m6.6 18.2a3.9 3.9 0 0 0-.8 1 22.7 22.7 0 0 0-2.3 5.8v.3l-.8.2c-.6.1-.8-.1-.9-.8l-.6-3.6a10.8 10.8 0 0 1 .1-4 50.1 50.1 0 0 1 1.4-5.2 5.4 5.4 0 0 1 1-1.6 1.4 1.4 0 0 1 1.6-.5 1.7 1.7 0 0 1 1.1 1.2 4.6 4.6 0 0 1-.6 3 6.5 6.5 0 0 1-2.4 2.8.8.8 0 0 0-.2.4v4.8a25.8 25.8 0 0 1 2-3.7l.9-.9a.9.9 0 0 1 1.1-.1 1 1 0 0 1 .9 1l-.3 1.4c-.4 1.7-.9 3.4-1.3 5.2a22.6 22.6 0 0 0 .1 2.6c0 .2.1.3.2.6a7 7 0 0 0 .8-1l2-3.7a2.9 2.9 0 0 0 .2-.9 11.3 11.3 0 0 1 1.5-4.7l.2-.2a2 2 0 0 1 3.2-.5l.3-.9a.5.5 0 0 1 .5-.3c.8.2 1.1.6.9 1.3l-.6 4.1c-.1.1-.1.2 0 .4a13.3 13.3 0 0 0 1.4-1.9 20 20 0 0 0 1-2.1h.1a.1.1 0 0 0 .1.1c.2-1 .4-2 .5-3h.2c0 .1.1.2.1.3s1.2.3 1.1.8l-.3 2.9-.3 1.7h.1l2.3-3c.4-.5.6-1 1.1-1.3s.7-.4 1.1-.1a.8.8 0 0 1 .3 1l-1.2 2.8a.4.4 0 0 1-.1.3h.3L78.6 66a25.5 25.5 0 0 0-2.5 6 4.3 4.3 0 0 1-.2 1.1v.5l.6-.3a36.1 36.1 0 0 0 3-2.5c1.6-1.4 3-2.9 4.5-4.4l.3-.3c.3-.8.9-.7 1.7-.5l-.8 1-4.4 4.4c-1.1 1-2.2 1.8-3.3 2.7a3.7 3.7 0 0 1-2.9.5c-.3 0-.4-.2-.4-.5a2 2 0 0 1 .1-.7c0 .3.1.6.1 1h.2a20.5 20.5 0 0 1 3.4-9.5c.6-1 1.3-2 1.8-3a15.5 15.5 0 0 0 .8-2.3 5.7 5.7 0 0 0-1.6 1.5 34 34 0 0 0-2.8 4.5 1.2 1.2 0 0 1-.9 1l-1.1-.2a1 1 0 0 1-.1-.4c0-.5.1-1.1.1-1.6a11.3 11.3 0 0 0-1 1.3l-.3.6a1.3 1.3 0 0 1-1.7.5.6.6 0 0 1-.5-.6v-1.6l-.5.7a11.4 11.4 0 0 1-1 1.9 1.5 1.5 0 0 1-2.3.4l-.5-.3-.6 1.8v.3l-.9 1.4a1.8 1.8 0 0 1-2 .8 1.2 1.2 0 0 1-.9-1 6.3 6.3 0 0 1 .1-3.6 12.7 12.7 0 0 1 .6-1.8c.1-.3.1-.6.2-1l.6-2.4c0-.2.1-.5.1-.7h-.1m-2.9-4.9a18.5 18.5 0 0 1-.4 2.3h.2l.2-.2a18.2 18.2 0 0 0 2-3.6 1.1 1.1 0 0 0-.2-1.3c-.2-.2-.5-.3-.7 0a5.4 5.4 0 0 0-1.3 3.1c.1-.1.1-.1.1-.2h.1m10 4.2h-.2a15.2 15.2 0 0 0-1.7 5.6h.2l2-3.8a.4.4 0 0 0 .1-.3 1.4 1.4 0 0 1-.2-.7 1.4 1.4 0 0 1-.2-.7m-7.8-5.6a18.7 18.7 0 0 1-.7 2.2A4.2 4.2 0 0 0 63 54c0 .2-.1.4-.1.7l-.2-.3M56 56.8l.4-1h-.1a9.1 9.1 0 0 1-.7 1.4.1.1 0 0 0-.1-.1c0-.1.1-.3.1-.4s.8-1.9 1.1-2.9a2.5 2.5 0 0 0 .2-1.2v-1.3a10.9 10.9 0 0 0-.1-1.8c-.1-.7-.5-.8-1-.3a16.5 16.5 0 0 0-1.9 2.7 22.8 22.8 0 0 0-2.6 8 14.2 14.2 0 0 1-.4 2v-1.3h-.1a3.4 3.4 0 0 0-.1 1 15.5 15.5 0 0 0 .2 4.8 10 10 0 0 0 .8 1.4c.1.2.4.2.6 0a7 7 0 0 0 2.2-2 4.4 4.4 0 0 1 .8-1.1h.1l-.3.7h.1l.6-1a3.7 3.7 0 0 0 .5-1.1 3.7 3.7 0 0 0 .5-1.1h.3c.5.4.5.4.2 1a9.6 9.6 0 0 1-1.5 2.2c-.4.4-.7 1.1-1.1 1.6a3.6 3.6 0 0 1-4.1 1.5 2.7 2.7 0 0 1-1.6-1.6 6.1 6.1 0 0 1-.3-1.3 12 12 0 0 1-.6-3.2 18.4 18.4 0 0 1 1-5.3 29.1 29.1 0 0 1 2.3-5.5 9.4 9.4 0 0 1 .9-1.2h.1v.4h.1a18 18 0 0 1 1.9-2 1.9 1.9 0 0 1 2.6-.1 1.5 1.5 0 0 1 .8 1.1 8.8 8.8 0 0 1 0 2.8 11.9 11.9 0 0 1-1.4 4l-.3.4a.1.1 0 0 1-.1-.1m1.5-6.1c-.2 1.4-.5 2.8-.7 4a10.2 10.2 0 0 0 .7-4m-15.2 5.5l2-4.2h.1c-.5 1.5-1.4 2.8-2 4.2a.1.1 0 0 1-.1-.1"/></g></svg>