<svg xmlns="http://www.w3.org/2000/svg" viewBox="0 0 32 32" width="32" height="32"><path d="M10.5 20.6l.2-1a1.3 1.3 0 0 1-.1.6 2.4 2.4 0 0 0 .4 1.5c.2.3.3.3.5.2a3.2 3.2 0 0 0 1.3-1l1.1-1.6v.4h.1a13 13 0 0 0 .8-1.7l1-2.1.4-.7H16l-.2.3c-.2 0-.3.2-.4.3l-.2.2h-.8a.7.7 0 0 1-.5-.4v-.2c-.1.1-.1.1-.1.2l-1.1 1.2-.4.4a.7.7 0 0 1-.6.1h-.1l-.5-.2c0-.1-.1-.2-.1-.3s.1-.4.2-.6a7.2 7.2 0 0 1 1.4-2.4v-.2h-.1c-.3-.1-.5-.1-.7-.3a.5.5 0 0 1-.3-.5 3.8 3.8 0 0 1 .8-1.7h.1c.1-.1.5.1.5.2s.2.3.1.5l-.3 1v.2l.5-.2a1.1 1.1 0 0 1 .8.1.2.2 0 0 1 .1.4.6.6 0 0 1-.1.4c-.3.5-.7 1-1 1.6a1.6 1.6 0 0 0-.4.7v.2h.1l.7-.7.7-.8a.5.5 0 0 0 .2-.4l.5-1.1c.1-.3.2-.3.4-.3s.3.2.2.3a.1.1 0 0 0 .1-.1v.2c.2 0 .3 0 .2.2a7.4 7.4 0 0 1-.4 1.4h.1l.7-.7.4-.8.4-.6h.3a.6.6 0 0 1 .4.7 4.1 4.1 0 0 1-.3 1.6 17.3 17.3 0 0 1-1.6 3.7 18.2 18.2 0 0 1-1.5 2.3 4.4 4.4 0 0 1-1.5 1.2 1.7 1.7 0 0 1-1 .3h-.8a.9.9 0 0 1-.6-.6 1.9 1.9 0 0 1-.3-1.3 4.9 4.9 0 0 1 .8-1.8l.4-.3h.3a.1.1 0 0 1 .1-.1 1 1 0 0 1 .9-.2.7.7 0 0 1 .6.7 2.5 2.5 0 0 1-.2 1.2 2.7 2.7 0 0 1-.8.7h-.4a.1.1 0 0 1-.1-.1h.3a2 2 0 0 0 .8-1.9V18c0-.1-.1-.1-.2-.1a1.8 1.8 0 0 0-.9.4c-.1.2-.3.3-.5.5s-.1.2-.2.4a3.5 3.5 0 0 0-.3 1.1zm-.1-.9l.6-1.2a2.3 2.3 0 0 0-.6 1.2zm-4-9.4a1.7 1.7 0 0 0-.1.7v.6c0-.2.1-.4.1-.6s.1-1.2.1-1.8v-.9c0-.1 0-.2-.1-.2v-.2c.1 0 .1-.1.2 0a.8.8 0 0 1 .8.6 1.3 1.3 0 0 0 .1.6v.2c0-.1.1-.1.1-.2A5.4 5.4 0 0 1 9 7.5l.5-.3a.4.4 0 0 1 .5 0 1.6 1.6 0 0 1 .7 1.1 3.8 3.8 0 0 1-.6 2.3l-.2.3h.1a1.6 1.6 0 0 1 1.3 1.7 2.4 2.4 0 0 1-.5 1.8 6.7 6.7 0 0 1-3.1 2.4 4.1 4.1 0 0 1-2.2.3 2 2 0 0 1-1.4-.6 1.6 1.6 0 0 1-.3-1.5v.5a.4.4 0 0 0 .1-.3 3.5 3.5 0 0 1 1.2-1.9 1.1 1.1 0 0 1 .8-.3c.1 0 .1-.1.1-.2l.3-2.1v-.3zm-.6 3.6h-.1a2.5 2.5 0 0 0-1 1.7 1.2 1.2 0 0 0 .6 1.1 2.2 2.2 0 0 0 1.2.2 4.6 4.6 0 0 0 1.6-.7 5.3 5.3 0 0 0 2-2.2 3.1 3.1 0 0 0 .2-2.1.9.9 0 0 0-.3-.7c-.1-.1-.2-.1-.3.1l-.4.5c-.3.3-.8.5-1.1.3s-.3-.3-.2-.5l.2-.4a14.8 14.8 0 0 0 1.6-2.7c.1-.3.1-.6.2-.8v-.2h-.5l-.3.2a8 8 0 0 0-1.3 2 3.8 3.8 0 0 0-.5 1.5l-.3 1.6.2.2.5.2 1.2.7.2.2H9a.6.6 0 0 1-.6-.3h-.1l-1.1-.4H7c0 .3-.1.5-.1.8a.5.5 0 0 1-.5.3h-.3c-.3 0-.4-.1-.4-.3a1.1 1.1 0 0 0 .1-.3z"/><path d="M20.2 12.3a.4.4 0 0 0 .1-.3v-.2h.4l.4.3a.6.6 0 0 1 .1.4l-.3.9a.9.9 0 0 1-.1.5h.2v-.2a1.6 1.6 0 0 0 .5-.9c.1-.4.3-.8.4-1.2h.1c.1-.2.2-.2.4-.2h.3c.2.1.3.2.2.5s-.1.8-.2 1.2v.2h.1l1-1.4.3-.3h.3c.3.2.3.4.3.8a8.8 8.8 0 0 1-.5 1.5L23 16.4v.3h.1a3.9 3.9 0 0 1 1-.8h.5l-.5.5-.8.7a1.3 1.3 0 0 1-1.2.2c-.2-.1-.3-.2-.2-.4a1.9 1.9 0 0 1 .2-.8 9.4 9.4 0 0 1 1.2-2.2l.9-1.5a4.3 4.3 0 0 1 .1-.5l-.2.2a6 6 0 0 0-.9 1.3l-.8 1.6h-.2c-.1.2-.3.2-.5 0h-.2l-.2-.2v-.7h-.1l-.5.6c-.1.1-.1.2-.2.2h-.4l-.5-.3-.2-.2c0 .1-.1.1-.1.2s-.2.3-.4.4-.2.2-.4.2l-.7-.3a.5.5 0 0 1-.4-.6l.3-.9a3.4 3.4 0 0 1 .9-1.4c0-.1.1-.1.1-.2a.9.9 0 0 1 1.3 0zm-1.3 1.8h.1l.7-.9a.8.8 0 0 0 .2-.7v-.2l-.2.2a3.5 3.5 0 0 0-.6 1.4zm2.2 6.1a.5.5 0 0 0-.2.4 6.4 6.4 0 0 0-.8 1.9h-.2c-.3 0-.3-.1-.4-.3a5 5 0 0 0-.2-1.2 5.7 5.7 0 0 1 .1-1.3 11.6 11.6 0 0 1 .4-1.8l.4-.5c.1-.2.3-.2.5-.2l.4.4a3 3 0 0 1-.2 1 3.9 3.9 0 0 1-.8 1H20v1.7a7.5 7.5 0 0 1 .7-1.2l.3-.1h.3c.2.1.3.2.3.4a.6.6 0 0 1-.1.4c-.1.6-.3 1.2-.4 1.8v.8c0 .1.1.1.1.2l.3-.3.6-1.2a.4.4 0 0 0 .1-.3 4.3 4.3 0 0 1 .5-1.6h.1a.6.6 0 0 1 1-.1.4.4 0 0 0 .1-.3h.2c.3 0 .4.2.3.4s-.1.9-.2 1.4l.5-.6.3-1h.1v-1h.1c.2 0 .4.1.4.3s-.1.7-.1 1-.1.3-.1.5a3.9 3.9 0 0 0 .8-1c.1-.1.2-.3.4-.4a.2.2 0 0 1 .3 0c.2.1.2.2.1.3a3.6 3.6 0 0 1-.4.9h.1l-.5 1.4a8.4 8.4 0 0 0-.8 2c0 .1-.1.2-.1.4h.2l1-.8 1.5-1.5a.1.1 0 0 0 .1-.1c.1-.2.3-.2.6-.1l-.3.3-1.5 1.5-1.1.9a1 1 0 0 1-.9.1h-.2a.4.4 0 0 1 .1-.3v.4h.1a6.8 6.8 0 0 1 1.1-3.3l.6-1 .3-.8-.6.5-.9 1.5c0 .2-.1.3-.3.4h-.4v-.6l-.3.5a.3.3 0 0 0-.1.2c-.2.2-.3.2-.6.1s-.1-.1-.1-.2v-.5c-.1.1-.1.2-.2.2l-.3.7a.6.6 0 0 1-.8.1h-.2a1.4 1.4 0 0 1-.2.6l-.3.5a.6.6 0 0 1-.7.2q-.1 0-.3-.3a2.5 2.5 0 0 1 .1-1.2 1.4 1.4 0 0 1 .2-.6v-.3a3.1 3.1 0 0 0 .2-.8c0-.1.1-.2.1-.3zm-.9-1.6l-.2.8h.2a6.7 6.7 0 0 0 .6-1.2c.1-.2.1-.3 0-.4h-.3a2.3 2.3 0 0 0-.4 1h.1zm3.3 1.4h-.1a5.9 5.9 0 0 0-.5 1.9 7.5 7.5 0 0 0 .7-1.2v-.3c-.1-.2-.1-.3-.1-.4zm-2.6-1.9l-.2.8a3.2 3.2 0 0 0 .3-.9v.2zm-2.2.8v-.3l-.3.5a3 3 0 0 0 .4-1c.1-.1.1-.2.1-.4v-.4a1.3 1.3 0 0 0-.1-.6c0-.2-.1-.3-.3-.1a4.7 4.7 0 0 0-.6.9 6.2 6.2 0 0 0-.9 2.7c0 .2-.1.4-.1.6v-.4h-.1v.3a4.2 4.2 0 0 0 .1 1.6c0 .2.1.3.2.5h.2a2.7 2.7 0 0 0 .8-.7l.2-.3h.1v.2l.2-.3c.1-.1.1-.3.2-.4s.1-.2.1-.4a.1.1 0 0 1 .1.1c.2.1.2.1.1.3l-.5.7-.4.6a1.3 1.3 0 0 1-1.3.5.9.9 0 0 1-.6-.6c0-.1-.1-.3-.1-.4s-.2-.7-.2-1.1a5.8 5.8 0 0 1 .4-1.8 13.4 13.4 0 0 1 .7-1.8l.3-.4h.1l.6-.7a.7.7 0 0 1 .9 0c.2.1.2.2.3.4v.9a5 5 0 0 1-.5 1.3c0 .1-.1.1-.1.2zm.5-2l-.3 1.3a2.8 2.8 0 0 0 .3-1.3zm-5.1 1.9l.7-1.4-.7 1.4z"/></svg>