<svg xmlns="http://www.w3.org/2000/svg" viewBox="0 0 32 32" width="32" height="32"><path d="M15.9 3.9l5.8.2a6.3 6.3 0 0 1 6.2 6.1c.2 3.5.1 7 .1 10.4a8.4 8.4 0 0 1-.8 3.8 5.9 5.9 0 0 1-4.9 3.4 54.4 54.4 0 0 1-5.7.3h-5.8a6.7 6.7 0 0 1-5.3-2.5 6.4 6.4 0 0 1-1.4-3.9q-.1-5.4 0-10.8a6.5 6.5 0 0 1 2.2-5.2 6.4 6.4 0 0 1 3.9-1.6zm.1 2.2h-5.4a4.2 4.2 0 0 0-3.3 1.7 5.1 5.1 0 0 0-1.1 3.3v9.5a6 6 0 0 0 .7 3.2 4.3 4.3 0 0 0 3.8 2h10.7a4 4 0 0 0 3.1-1.3 4.9 4.9 0 0 0 1.3-3.6c.1-3.1.1-6.1.1-9.2a8.1 8.1 0 0 0-.6-3.1 4.3 4.3 0 0 0-3.9-2.4z"/><path d="M9.8 16a6.2 6.2 0 1 1 6.2 6.2A6.2 6.2 0 0 1 9.8 16zm6.2 4a4 4 0 1 0-4-4 4 4 0 0 0 4 4zm7.9-10.4a1.4 1.4 0 0 1-1.4 1.4A1.5 1.5 0 0 1 21 9.6a1.5 1.5 0 0 1 1.5-1.5 1.5 1.5 0 0 1 1.4 1.5z"/></svg>